# xmcd
#
# Track frame offsets:
#	150
#	27754
#	45395
#	60720
#	77735
#	92654
#	120389
#	150715
#	173361
#	195704
#	234523
#	259512
#	288744
#	317111
#
# Disc length: 4466 seconds
#
# Revision: 1
# Processed by: cddbd v1.5.2PL0 Copyright (c) Steve Scherf et al.
# Submitted via: EasyCDDAExtractor 16.0.6.1
#
DISCID=ad11700e
DTITLE=Various Artist - BGP presents Jazz Funk
DYEAR=2012
DGENRE=Jazz - Funk
TTITLE0=The Blackbyrds - Happy Music
TTITLE1=Marlon McClain - Close To You
TTITLE2=Stanley Cowell - Let Me Love You (Let Me Be Me)
TTITLE3=Paulinho Da Costa - Taj Mahal
TTITLE4=Charles Earland - Leaving This Planet
TTITLE5=Johnny Hammond - Los Conquistadores Chocolates
TTITLE6=Azar Lawrence - Novo Ano
TTITLE7=Flora Purim - Moon Dreams
TTITLE8=Jay Hoggard - Sao Pablo
TTITLE9=OPA - Montevideo
TTITLE10=Spider's Webb - I Don't Know What's On Your Mind
TTITLE11=Pleasure - Glide
TTITLE12=Patrice Rushen - Shout It Out
TTITLE13=The 3 Pieces - If I Could Only Prove To You
EXTD=
EXTT0=
EXTT1=
EXTT2=
EXTT3=
EXTT4=
EXTT5=
EXTT6=
EXTT7=
EXTT8=
EXTT9=
EXTT10=
EXTT11=
EXTT12=
EXTT13=
PLAYORDER=
